custom-analysis
version=1
nRows=45
nColumns=13
inDegrees=no

This file contains tibia displacement and acting force.

Units are S.I. units (seconds, meters, Newtons, ...)
Angles are in degrees.

endheader
time	displacement	knee_angle	aACL_R_strain	pACL_R_strain	aPCL_R_strain	pPCL_R_strain	aMCL_R_strain	aLCL_R_strain	aPCL_L_strain	pPCL_L_strain	aMCL_L_strain	aLCL_L_strain
      0.00000000	      0.00000000	      1.66158400	      0.00000978	      0.00004664	     -0.00006365	     -0.00002255	     -0.00679256	     -0.00001335	      0.00000079	     -0.32847694	      0.00000060	     -0.00000086
      0.00105573	     -0.00004632	      1.65837671	     -0.00131267	     -0.00143098	     -0.00112816	     -0.00127776	     -0.00748855	     -0.00069910	      0.00007436	     -0.32835308	      0.00008164	      0.00011764
      0.00298932	     -0.00035761	      1.63850272	     -0.01013781	     -0.01124656	     -0.00847993	     -0.00985062	     -0.01217606	     -0.00538403	      0.00038298	     -0.32768284	      0.00054170	      0.00076904
      0.00543768	     -0.00099914	      1.60718706	     -0.02785518	     -0.03065702	     -0.02487600	     -0.02835098	     -0.02186097	     -0.01548798	      0.00079842	     -0.32641900	      0.00144291	      0.00200113
      0.00728820	     -0.00140732	      1.59642450	     -0.03856085	     -0.04209240	     -0.03651053	     -0.04088376	     -0.02798923	     -0.02230178	      0.00106939	     -0.32533259	      0.00222890	      0.00304727
      0.00875030	     -0.00160477	      1.59524831	     -0.04350231	     -0.04726942	     -0.04252102	     -0.04717413	     -0.03092105	     -0.02570662	      0.00125081	     -0.32443838	      0.00287607	      0.00389136
      0.01053074	     -0.00173824	      1.59869565	     -0.04674788	     -0.05065418	     -0.04666167	     -0.05147469	     -0.03288701	     -0.02802866	      0.00142618	     -0.32332134	      0.00367750	      0.00491300
      0.01231118	     -0.00182838	      1.60793565	     -0.04885163	     -0.05285825	     -0.04950261	     -0.05441805	     -0.03420238	     -0.02960905	      0.00154725	     -0.32217898	      0.00448318	      0.00591096
      0.01409162	     -0.00192972	      1.62370837	     -0.05118057	     -0.05532685	     -0.05263856	     -0.05769978	     -0.03567386	     -0.03136905	      0.00161476	     -0.32101443	      0.00528572	      0.00687381
      0.01550348	     -0.00202930	      1.64207679	     -0.05340910	     -0.05768667	     -0.05574407	     -0.06093699	     -0.03710633	     -0.03310135	      0.00163045	     -0.32007580	      0.00591632	      0.00760651
      0.01722758	     -0.00217097	      1.67151023	     -0.05655422	     -0.06103825	     -0.06007693	     -0.06548830	     -0.03913388	     -0.03553895	      0.00160344	     -0.31891040	      0.00667631	      0.00845850
      0.01868505	      0.00229691	      1.70327335	     -0.05926111	     -0.06393300	     -0.06392506	     -0.06953053	     -0.04091516	     -0.03769873	      0.00154087	     -0.31790693	      0.00730826	      0.00913835
      0.02014251	      0.00242258	      1.74118579	     -0.06190678	     -0.06679390	     -0.06768981	     -0.07352193	     -0.04267819	     -0.03982923	      0.00144252	     -0.31688428	      0.00792929	      0.00977854
      0.02159998	      0.00254581	      1.78620788	     -0.06437438	     -0.06947906	     -0.07139126	     -0.07744030	     -0.04437719	     -0.04191136	      0.00130993	     -0.31583972	      0.00853852	      0.01037730
      0.02269926	      0.00263628	      1.82448662	     -0.06614403	     -0.07143492	     -0.07404229	     -0.08028043	     -0.04561339	     -0.04341827	      0.00118873	     -0.31503555	      0.00898984	      0.01080081
      0.02379854	      0.00272474	      1.86699234	     -0.06779960	     -0.07328203	     -0.07662423	     -0.08305030	     -0.04680353	     -0.04488226	      0.00105079	     -0.31421584	      0.00943392	      0.01119988
      0.02489782	      0.00281206	      1.91350872	     -0.06938933	     -0.07508123	     -0.07912235	     -0.08575516	     -0.04796615	     -0.04630912	      0.00089771	     -0.31337925	      0.00987069	      0.01157449
      0.02599710	      0.00289752	      1.96448410	     -0.07085880	     -0.07676476	     -0.08155736	     -0.08839311	     -0.04908145	     -0.04769408	      0.00073130	     -0.31252443	      0.01030009	      0.01192479
      0.02709638	      0.00298095	      2.01958439	     -0.07224326	     -0.07838383	     -0.08387229	     -0.09093224	     -0.05015621	     -0.04902367	      0.00055355	     -0.31165011	      0.01072215	      0.01225108
      0.02819566	      0.00306216	      2.07931437	     -0.07349153	     -0.07987124	     -0.08611056	     -0.09338920	     -0.05117528	     -0.05030250	      0.00036657	     -0.31075509	      0.01113695	      0.01255386
      0.02929494	      0.00314213	      2.14329721	     -0.07467280	     -0.08131447	     -0.08824602	     -0.09576736	     -0.05216445	     -0.05153702	      0.00017255	     -0.30983826	      0.01154459	      0.01283373
      0.03039422	      0.00322064	      2.21209209	     -0.07572520	     -0.08263283	     -0.09032578	     -0.09808259	     -0.05310462	     -0.05273078	     -0.00002625	     -0.30889866	      0.01194522	      0.01309140
      0.03126140	      0.00328104	      2.26928103	     -0.07650729	     -0.08364669	     -0.09185595	     -0.09982392	     -0.05381943	     -0.05362650	     -0.00021472	     -0.30814673	      0.01225792	      0.01327667
      0.03212859	      0.00334012	      2.32945963	     -0.07720187	     -0.08457720	     -0.09333236	     -0.10150887	     -0.05449796	     -0.05448779	     -0.00044272	     -0.30738806	      0.01256843	      0.01344558
      0.03332926	      0.00342008	      2.41736009	     -0.07806790	     -0.08579143	     -0.09525500	     -0.10373975	     -0.05539350	     -0.05562241	     -0.00081551	     -0.30632583	      0.01299461	      0.01365450
      0.03434035	      0.00348710	      2.49579162	     -0.07870925	     -0.08673557	     -0.09682999	     -0.10557656	     -0.05611725	     -0.05655062	     -0.00117331	     -0.30542008	      0.01335001	      0.01380989
      0.03535145	      0.00355387	      2.57786577	     -0.07931800	     -0.08767120	     -0.09832460	     -0.10736014	     -0.05682771	     -0.05744987	     -0.00156410	     -0.30450352	      0.01370209	      0.01394823
      0.03636255	      0.00362086	      2.66414165	     -0.07983448	     -0.08851695	     -0.09980583	     -0.10912219	     -0.05750966	     -0.05833189	     -0.00198135	     -0.30357571	      0.01405072	      0.01407113
      0.03716362	      0.00367350	      2.73492743	     -0.08023118	     -0.08919690	     -0.10089973	     -0.11046632	     -0.05804177	     -0.05900396	     -0.00232652	     -0.30283236	      0.01432439	      0.01415855
      0.03796469	      0.00372617	      2.80831943	     -0.08056760	     -0.08981841	     -0.10197867	     -0.11179084	     -0.05855411	     -0.05966216	     -0.00268126	     -0.30208151	      0.01459574	      0.01423796
      0.03903378	      0.00379627	      2.90983324	     -0.08097501	     -0.09062676	     -0.10334408	     -0.11350568	     -0.05922162	     -0.06051156	     -0.00316451	     -0.30106747	      0.01495413	      0.01433265
      0.03997513	      0.00385824	      3.00287485	     -0.08126333	     -0.09127532	     -0.10451538	     -0.11498556	     -0.05978683	     -0.06123996	     -0.00359442	     -0.30016300	      0.01526603	      0.01440646
      0.04091648	      0.00391989	      3.09883140	     -0.08153489	     -0.09193172	     -0.10560016	     -0.11640895	     -0.06034315	     -0.06193944	     -0.00402388	     -0.29924749	      0.01557437	      0.01447236
      0.04173691	      0.00397407	      3.18533005	     -0.08170499	     -0.09243729	     -0.10653883	     -0.11763490	     -0.06080796	     -0.06253764	     -0.00439456	     -0.29844045	      0.01584009	      0.01452406
      0.04255734	      0.00402791	      3.27396659	     -0.08186417	     -0.09295141	     -0.10740624	     -0.11881386	     -0.06126597	     -0.06311213	     -0.00475911	     -0.29762481	      0.01610292	      0.01457103
      0.04337777	      0.00408195	      3.36511696	     -0.08197069	     -0.09341690	     -0.10825052	     -0.11996893	     -0.06170678	     -0.06367166	     -0.00511505	     -0.29680052	      0.01636279	      0.01461379
      0.04446794	      0.00415360	      3.48965783	     -0.08207786	     -0.09402327	     -0.10928825	     -0.12144480	     -0.06227860	     -0.06438439	     -0.00557067	     -0.29569174	      0.01670335	      0.01466494
      0.04525738	      0.00420605	      3.58259913	     -0.08209749	     -0.09440658	     -0.11002615	     -0.12249605	     -0.06267565	     -0.06488866	     -0.00588556	     -0.29487920	      0.01694648	      0.01469851
      0.04604681	      0.00425846	      3.67741130	     -0.08211605	     -0.09480659	     -0.11070595	     -0.12351215	     -0.06307150	     -0.06537612	     -0.00618575	     -0.29405857	      0.01718661	      0.01472956
      0.04702261	      0.00432402	      3.79770196	     -0.08207995	     -0.09524573	     -0.11152954	     -0.12474938	     -0.06354451	     -0.06596651	     -0.00653391	     -0.29303301	      0.01747917	      0.01476498
      0.04787876	      0.00438136	      3.90560212	     -0.08203657	     -0.09563902	     -0.11218030	     -0.12578770	     -0.06395388	     -0.06646135	     -0.00681626	     -0.29212304	      0.01773188	      0.01479379
      0.04873491	      0.00443951	      4.01621773	     -0.08192586	     -0.09596276	     -0.11282792	     -0.12681252	     -0.06434393	     -0.06694614	     -0.00707500	     -0.29120361	      0.01798079	      0.01482084
      0.04959106	      0.00449731	      4.12888438	     -0.08181621	     -0.09630967	     -0.11339609	     -0.12778724	     -0.06473198	     -0.06740732	     -0.00730833	     -0.29027476	      0.01822581	      0.01484647
      0.05044721	      0.00455600	      4.24424077	     -0.08163682	     -0.09658334	     -0.11396357	     -0.12874916	     -0.06510018	     -0.06785886	     -0.00751450	     -0.28933654	      0.01846686	      0.01487097
      0.05130336	      0.00461425	      4.36154947	     -0.08146470	     -0.09688779	     -0.11444687	     -0.12965893	     -0.06546834	     -0.06828636	     -0.00769134	     -0.28838894	      0.01870385	      0.01489466
